<svg width="18" height="18" viewBox="0 0 18 18" fill="none" xmlns="http://www.w3.org/2000/svg">
<path d="M15.3634 1.5H17.965L12.5509 6.86062C10.5903 8.8009 7.41145 8.8009 5.44938 6.86062L0.0332031 1.5H2.63687L6.75016 5.57215C7.34946 6.16281 8.15712 6.49392 8.99857 6.49392C9.84003 6.49392 10.6477 6.16281 11.247 5.57215L15.3634 1.5Z" fill="#6B6E78"/>
<path d="M2.60332 16.4063H0L5.44922 11.0126C7.40988 9.0723 10.5887 9.0723 12.5508 11.0126L18 16.4063H15.3984L11.25 12.3011C10.6507 11.7104 9.84304 11.3793 9.00158 11.3793C8.16013 11.3793 7.35247 11.7104 6.75316 12.3011L2.60332 16.4063Z" fill="#6B6E78"/>
</svg>
