<svg width="18" height="18" viewBox="0 0 18 18" fill="none" xmlns="http://www.w3.org/2000/svg">
<g clip-path="url(#clip0_8223_51332)">
<path d="M17.717 11.1903C16.515 16.0118 11.6316 18.9461 6.80955 17.7437C1.98953 16.5417 -0.944725 11.658 0.257818 6.83696C1.4593 2.01495 6.34268 -0.91952 11.1632 0.282494C15.9849 1.48451 18.919 6.36872 17.7169 11.1904L17.7169 11.1903H17.717Z" fill="#F7931A"/>
<path d="M12.9683 7.71775C13.1474 6.52005 12.2356 5.87624 10.9887 5.44675L11.3932 3.82436L10.4056 3.57827L10.0118 5.15795C9.75217 5.09319 9.48554 5.03218 9.22054 4.97169L9.61716 3.38158L8.63018 3.1355L8.22546 4.75736C8.01061 4.70845 7.79958 4.6601 7.59485 4.60916L7.59599 4.60406L6.23407 4.26396L5.97135 5.31878C5.97135 5.31878 6.70407 5.48674 6.68863 5.49708C7.08855 5.59689 7.16087 5.86163 7.14886 6.07147L6.6881 7.91976C6.71564 7.92675 6.75136 7.93687 6.79078 7.95271C6.75783 7.94453 6.72276 7.9356 6.68638 7.92688L6.04055 10.5161C5.99168 10.6376 5.86762 10.8199 5.58801 10.7507C5.59791 10.765 4.87021 10.5715 4.87021 10.5715L4.37988 11.702L5.66508 12.0224C5.90418 12.0824 6.13847 12.1451 6.36921 12.2041L5.96053 13.8451L6.94699 14.0912L7.35171 12.4676C7.6212 12.5408 7.88272 12.6082 8.13875 12.6719L7.7354 14.2878L8.72304 14.5339L9.13168 12.896C10.8157 13.2147 12.082 13.0862 12.615 11.5629C13.0445 10.3365 12.5936 9.62917 11.7077 9.16788C12.353 9.01905 12.839 8.59463 12.9686 7.71788L12.9683 7.71766L12.9683 7.71775ZM10.7118 10.8819C10.4066 12.1082 8.34177 11.4453 7.67231 11.2791L8.21464 9.10501C8.88405 9.27213 11.0308 9.60286 10.7119 10.8819H10.7118ZM11.0173 7.69998C10.7389 8.81551 9.02025 8.24877 8.46275 8.1098L8.95444 6.13807C9.51194 6.27704 11.3073 6.53641 11.0174 7.69998H11.0173Z" fill="white"/>
</g>
<defs>
<clipPath id="clip0_8223_51332">
<rect width="18" height="18" fill="white"/>
</clipPath>
</defs>
</svg>
