<svg width="18" height="18" viewBox="0 0 18 18" fill="none" xmlns="http://www.w3.org/2000/svg">
<g clip-path="url(#clip0_8223_51397)">
<path opacity="0.25" d="M7.71801 8.2218L5.63177 4.51568L3.51063 0.773545C3.38932 0.562362 3.22112 0.383599 3.01974 0.251831H3.0022C2.7871 0.379648 2.61102 0.566569 2.49378 0.791554L0.916056 3.59813C0.688138 3.99822 0.688138 4.49342 0.916056 4.8935L2.80934 8.25772C2.94958 8.49156 3.0022 8.76143 3.0022 9.03129C3.00068 9.30148 2.93445 9.56714 2.80934 9.80485L0.933597 13.1329C0.705679 13.533 0.705679 14.0282 0.933597 14.4282L2.51132 17.2348C2.63402 17.4507 2.80934 17.6486 3.01974 17.7745H3.03729C3.24769 17.6486 3.40547 17.4687 3.52817 17.2528L5.63186 13.5108L7.71801 9.76893C7.9809 9.28853 7.9809 8.70219 7.71801 8.2218Z" fill="url(#paint0_linear_8223_51397)"/>
<path opacity="0.25" d="M17.7805 8.11385L15.6768 4.38973L13.5206 0.557732C13.421 0.384002 13.2902 0.231352 13.1349 0.107963C13.0472 0.0360185 12.9595 0 12.8544 0C11.7499 0 10.9961 0.0360185 10.4351 0.0360185C10.3475 0.0360185 10.2949 0.143982 10.3124 0.233935L10.8558 3.36477C10.8558 3.40079 10.8558 3.43672 10.8383 3.47273C10.6279 3.86857 10.6454 4.35426 10.8734 4.7501L12.8017 8.20418C12.942 8.45603 13.0121 8.72589 13.0121 8.99575C13.0121 9.26561 12.942 9.53547 12.8017 9.78733L10.8558 13.2414C10.628 13.6372 10.628 14.1229 10.8207 14.5188C10.8383 14.5548 10.8383 14.5907 10.8383 14.6267L10.2949 17.7391C10.2773 17.8291 10.3299 17.937 10.4176 17.937C10.926 17.937 10.2072 17.9909 12.9069 17.9909C12.9595 17.9909 13.0296 17.9729 13.0822 17.9549C13.2751 17.883 13.3978 17.6491 13.5029 17.4512L15.6592 13.6012L17.7454 9.8771C18.0785 9.3371 18.0785 8.67159 17.7805 8.11385Z" fill="url(#paint1_linear_8223_51397)"/>
<path d="M16.9218 8.22182L12.7319 0.773566C12.469 0.30588 11.9781 0 11.4347 0H3.05502C2.77454 0 2.5116 0.0899538 2.26611 0.233843V0.251852C2.46749 0.38362 2.63569 0.562383 2.757 0.773566L4.86069 4.5157C5.05355 4.42575 5.28141 4.37181 5.49181 4.37181H8.96281C9.50623 4.37181 9.9973 4.65968 10.2601 5.14538L11.9956 8.22182C12.2585 8.6896 12.2585 9.28325 11.9956 9.76904L10.2601 12.8455C9.99712 13.3133 9.48869 13.619 8.96281 13.619H5.50926C5.29125 13.6183 5.07596 13.5692 4.87814 13.4752L2.77454 17.2172C2.65323 17.4284 2.48503 17.6071 2.28365 17.7389V17.7569C2.51151 17.9008 2.79208 17.9908 3.07256 17.9908H11.4693C12.0127 17.9908 12.5038 17.7029 12.7666 17.2172L16.9566 9.76895C17.2022 9.28325 17.2022 8.70751 16.9218 8.22182Z" fill="url(#paint2_linear_8223_51397)"/>
<path d="M6.94659 8.2218L4.86045 4.51568L2.75676 0.773545C2.63545 0.562362 2.46725 0.383599 2.26587 0.251831H2.24869C2.03359 0.379648 1.85751 0.566569 1.74027 0.791554L0.179727 3.58012C-0.0481904 3.98021 -0.0481904 4.47541 0.179727 4.87549L2.07301 8.23971C2.21325 8.47355 2.26587 8.74342 2.26587 9.01328C2.26435 9.28347 2.19812 9.54913 2.07301 9.78684L0.179727 13.1329C-0.0481904 13.533 -0.0481904 14.0282 0.179727 14.4282L1.75754 17.2351C1.88024 17.451 2.05556 17.6488 2.26596 17.7748H2.28351C2.49391 17.6488 2.65169 17.4689 2.77439 17.2531L4.87808 13.5111L6.96413 9.80495C7.22707 9.28323 7.22707 8.70749 6.94659 8.2218Z" fill="url(#paint3_linear_8223_51397)"/>
</g>
<defs>
<linearGradient id="paint0_linear_8223_51397" x1="0.761063" y1="-0.230909" x2="7.91177" y2="-0.230909" gradientUnits="userSpaceOnUse">
<stop stopColor="#00BA96"/>
<stop offset="0.52" stopColor="#00D9AF"/>
<stop offset="1" stopColor="#00D9AF"/>
</linearGradient>
<linearGradient id="paint1_linear_8223_51397" x1="10.304" y1="-0.230887" x2="18.0123" y2="-0.230887" gradientUnits="userSpaceOnUse">
<stop stopColor="#008D85"/>
<stop offset="1" stopColor="#00FFE0"/>
</linearGradient>
<linearGradient id="paint2_linear_8223_51397" x1="2.26611" y1="-0.230888" x2="17.1367" y2="-0.230888" gradientUnits="userSpaceOnUse">
<stop stopColor="#008D94"/>
<stop offset="1" stopColor="#00FFE0"/>
</linearGradient>
<linearGradient id="paint3_linear_8223_51397" x1="0.00881295" y1="-0.230909" x2="7.15916" y2="-0.230909" gradientUnits="userSpaceOnUse">
<stop stopColor="#00BA96"/>
<stop offset="0.52" stopColor="#00D9AF"/>
<stop offset="1" stopColor="#00FAAF"/>
</linearGradient>
<clipPath id="clip0_8223_51397">
<rect width="18" height="18" fill="white"/>
</clipPath>
</defs>
</svg>
