<svg width="18" height="18" viewBox="0 0 18 18" fill="none" xmlns="http://www.w3.org/2000/svg">
<path d="M12.7135 6.71394C12.6505 6.77694 12.5659 6.81294 12.4777 6.81294H4.11673C3.82153 6.81294 3.67213 6.45294 3.87733 6.23874L5.24893 4.81854C5.31193 4.75374 5.39833 4.71594 5.48833 4.71594H13.8799C14.1769 4.71594 14.3263 5.07954 14.1157 5.29374L12.7135 6.71394ZM12.7135 13.0607C12.6505 13.1219 12.5659 13.1579 12.4777 13.1579H4.11673C3.82153 13.1579 3.67213 12.8069 3.87733 12.5981L5.24893 11.2121C5.31193 11.1491 5.39833 11.1131 5.48833 11.1131H13.8799C14.1769 11.1131 14.3263 11.4677 14.1157 11.6765L12.7135 13.0607ZM12.4777 7.91454C12.5659 7.91454 12.6505 7.94874 12.7135 8.01174L14.1157 9.39774C14.3263 9.60474 14.1769 9.96114 13.8799 9.96114H5.48833C5.39833 9.96114 5.31193 9.92514 5.24893 9.86214L3.87733 8.47614C3.67033 8.26734 3.81973 7.91634 4.11673 7.91634L12.4777 7.91454Z" fill="#00FFAD"/>
<path d="M9 0C13.9698 0 18 4.0302 18 9C18 13.9698 13.9698 18 9 18C4.0302 18 0 13.9698 0 9C0 4.0302 4.0302 0 9 0Z" fill="black"/>
<path fillRule="evenodd" clipRule="evenodd" d="M4.16169 8.14144H12.4903C12.5947 8.14144 12.6937 8.18284 12.7657 8.25664L14.0833 9.58324C14.3263 9.82804 14.1535 10.2456 13.8079 10.2456H5.47929C5.37489 10.2456 5.27589 10.2042 5.20389 10.1304L3.88629 8.80384C3.64149 8.55904 3.81609 8.14144 4.16169 8.14144ZM3.88629 6.38284L5.20389 5.05624C5.27769 4.98244 5.37669 4.94104 5.47929 4.94104H13.8061C14.1517 4.94104 14.3263 5.35864 14.0815 5.60344L12.7657 6.93004C12.6919 7.00384 12.5929 7.04524 12.4903 7.04524H4.16169C3.81609 7.04524 3.64149 6.62764 3.88629 6.38284ZM14.0815 12.0042L12.7639 13.3308C12.6901 13.4046 12.5911 13.446 12.4885 13.446H4.16169C3.81609 13.446 3.64149 13.0284 3.88629 12.7836L5.20389 11.457C5.27769 11.3832 5.37669 11.3418 5.47929 11.3418H13.8061C14.1517 11.3418 14.3263 11.7594 14.0815 12.0042Z" fill="url(#paint0_linear_8223_51367)"/>
<defs>
<linearGradient id="paint0_linear_8223_51367" x1="4.36544" y1="13.812" x2="13.6023" y2="4.57509" gradientUnits="userSpaceOnUse">
<stop stopColor="#CB4EE8"/>
<stop offset="1" stopColor="#10F4B1"/>
</linearGradient>
</defs>
</svg>
