<svg width="18" height="18" viewBox="0 0 18 18" fill="none" xmlns="http://www.w3.org/2000/svg">
<path d="M9.02709 0.0975238V0.106391C9.03596 0.150726 9.03596 0.203928 9.03596 0.25713V6.65023C9.02709 6.6857 9.00049 6.69457 8.97389 6.7123C8.78768 6.80097 8.61034 6.88078 8.42413 6.96058C8.16699 7.07585 7.90098 7.19999 7.64384 7.31526L6.7128 7.74087C6.45566 7.85615 6.19852 7.97142 5.95024 8.08669C5.64876 8.22856 5.33842 8.36156 5.03694 8.50344C4.7798 8.61871 4.52265 8.74284 4.25664 8.85812C4.04384 8.95565 3.83103 9.04432 3.62709 9.14186C3.60935 9.15073 3.59162 9.15959 3.57389 9.15959C3.56502 9.15959 3.56502 9.15959 3.55615 9.15073L3.79556 8.75171C4.25664 7.98915 4.70886 7.23546 5.16995 6.47289C5.65763 5.65713 6.15418 4.84137 6.64187 4.0256C7.09408 3.27191 7.55517 2.51821 8.00738 1.76452C8.33546 1.21477 8.67241 0.665012 9.00049 0.115258C9.00935 0.0975238 9.01822 0.0886568 9.01822 0.0709229H9.02709C9.01822 0.0797898 9.02709 0.0886568 9.02709 0.0975238Z" fill="#8A92B2"/>
<path d="M14.4709 9.15071L14.4797 9.15957L13.1763 9.931L9.07973 12.3517C9.06199 12.3606 9.04426 12.3694 9.03539 12.3783C9.00879 12.3783 9.00879 12.3517 9.00879 12.3428V12.263V6.78322C9.00879 6.75662 9.00879 6.72115 9.01766 6.69455C9.02652 6.65908 9.05312 6.66795 9.07973 6.67682C9.195 6.73002 9.31913 6.78322 9.4344 6.83642C9.78022 6.99603 10.126 7.15563 10.4718 7.30637C10.7733 7.43938 11.0659 7.58125 11.3674 7.71425C11.6689 7.84726 11.9704 7.98913 12.2718 8.12214C12.529 8.23741 12.795 8.36154 13.0521 8.47681C13.3093 8.59209 13.5753 8.71622 13.8324 8.83149C14.0364 8.92016 14.2403 9.0177 14.4443 9.10637C14.4443 9.13297 14.4531 9.14184 14.4709 9.15071Z" fill="#454A75"/>
<path d="M9.0266 17.8847C9.0266 17.8936 9.01773 17.9025 9.01773 17.9113H9.00887C9.00887 17.8936 8.99113 17.8847 8.98227 17.867C8.43251 17.0956 7.88276 16.3153 7.333 15.5438C6.77438 14.7547 6.2069 13.9567 5.64828 13.1675C5.10739 12.4049 4.55763 11.6335 4.01675 10.8709C3.87488 10.667 3.733 10.4719 3.59113 10.268C3.58227 10.2503 3.5734 10.2414 3.55566 10.2148C3.58227 10.2148 3.6 10.2325 3.60887 10.2414C4.38029 10.6936 5.14286 11.1458 5.91428 11.598C6.80098 12.1212 7.67882 12.6443 8.56552 13.1675L9.01773 13.4335C9.03547 13.4512 9.03547 13.469 9.03547 13.4867V17.7606C9.03547 17.8049 9.03547 17.8493 9.0266 17.8847Z" fill="#8A92B2"/>
<path d="M3.54688 9.16846V9.15959C3.83062 9.03546 4.1055 8.90245 4.38924 8.77831C4.75279 8.60984 5.11633 8.45023 5.47988 8.28176C5.75476 8.15762 6.0385 8.02462 6.31338 7.90048C6.72126 7.71427 7.12027 7.53693 7.52816 7.35073C7.80303 7.22659 8.07791 7.10245 8.36165 6.96945C8.55673 6.88078 8.76067 6.79211 8.95574 6.70344C8.97347 6.69457 9.00008 6.6857 9.00894 6.66797C9.01781 6.66797 9.01781 6.67684 9.00894 6.6857V12.3162C9.00894 12.3428 9.00008 12.3694 9.01781 12.3872C9.00008 12.4138 8.98234 12.3872 8.97347 12.3783C8.89367 12.334 8.81387 12.2896 8.73407 12.2364C7.02274 11.2256 5.30254 10.2059 3.59121 9.19506C3.58234 9.1862 3.56461 9.17733 3.54688 9.16846Z" fill="#62688F"/>
<path d="M14.453 10.2148H14.4619C14.4619 10.2325 14.4442 10.2503 14.4353 10.268C12.8038 12.5645 11.1723 14.87 9.54073 17.1665C9.37226 17.4059 9.19492 17.6453 9.02645 17.8847C9.01758 17.8759 9.01758 17.867 9.01758 17.8581V17.8049V13.5044V13.4246C9.38999 13.203 9.75354 12.9902 10.126 12.7685C11.5624 11.9172 12.9989 11.0749 14.4264 10.2237C14.4353 10.2325 14.4442 10.2236 14.453 10.2148Z" fill="#62688F"/>
<path d="M9.01773 6.68569V6.66796V6.61476V0.17732C9.01773 0.150719 9.00887 0.132985 9.0266 0.106384C10.8266 3.09456 12.6266 6.07387 14.4177 9.06205C14.4355 9.08865 14.4621 9.12412 14.4709 9.15959C14.3468 9.11525 14.2315 9.05318 14.1163 8.99998C13.9744 8.93791 13.8236 8.86698 13.6818 8.80491C13.5931 8.76057 13.4956 8.7251 13.4069 8.68077C13.2562 8.60983 13.1054 8.54776 12.9547 8.47683C12.866 8.44136 12.7773 8.39703 12.6887 8.35269L12.1034 8.08668C12.0059 8.04235 11.9084 7.99801 11.802 7.95367L11.3764 7.76747C11.2877 7.732 11.199 7.68767 11.1103 7.64333L10.5251 7.37732C10.4276 7.33299 10.33 7.28865 10.2236 7.24432L9.79803 7.05811C9.70049 7.01377 9.61182 6.96944 9.51429 6.9251C9.34581 6.8453 9.17734 6.7655 9 6.69456C9.0266 6.6857 9.01773 6.68569 9.01773 6.68569Z" fill="#62688F"/>
</svg>
