<svg width="18" height="18" viewBox="0 0 18 18" fill="none" xmlns="http://www.w3.org/2000/svg">
<path d="M8.77914 0.799333C9.17147 0.59478 9.65034 1.06933 9.44154 1.4613C9.32051 1.78077 8.86151 1.86573 8.62708 1.62222C8.37897 1.38844 8.45997 0.926486 8.77914 0.799333ZM4.55944 1.25409C4.79776 1.15595 5.09944 1.37433 5.07511 1.6341C5.10038 1.91606 4.75564 2.12371 4.51271 1.98964C4.19087 1.86501 4.22767 1.3425 4.55944 1.25416V1.25409ZM13.2018 1.99756C12.8294 1.95256 12.7705 1.36706 13.129 1.24876C13.4072 1.11311 13.6622 1.36749 13.7029 1.63108C13.6446 1.85615 13.4561 2.06229 13.2018 1.9972V1.99756ZM5.51942 3.04977C5.91786 2.79777 6.48638 3.17304 6.4251 3.63586C6.40444 4.10314 5.78373 4.37386 5.43359 4.05792C5.09519 3.80981 5.14631 3.2405 5.51942 3.04992V3.04977ZM11.6017 3.31733C11.7796 2.85969 12.4999 2.84529 12.7022 3.2917C12.9021 3.63874 12.6562 4.06851 12.2999 4.18644C11.828 4.27457 11.3797 3.76438 11.6019 3.31769L11.6017 3.31733ZM8.27097 4.16031C8.26708 3.76654 8.62571 3.47314 8.99997 3.44635C9.24815 3.4961 9.51872 3.60187 9.62521 3.85236C9.82364 4.19796 9.64746 4.6736 9.2889 4.83221C9.12496 4.92409 8.93106 4.88981 8.7525 4.87894C8.47955 4.74495 8.24965 4.48215 8.27104 4.16038L8.27097 4.16031ZM1.99574 4.73401C2.3597 4.51023 2.85074 4.91861 2.71293 5.31397C2.63704 5.65597 2.17732 5.79507 1.91452 5.57677C1.63372 5.37222 1.67844 4.88031 1.99574 4.73401ZM15.471 4.73328C15.7798 4.49352 16.2893 4.76857 16.2525 5.15809C16.2733 5.51362 15.8327 5.78168 15.5261 5.59866C15.1885 5.44695 15.1541 4.92754 15.471 4.73292V4.73328ZM10.0357 5.44076C10.5452 5.25773 11.1505 5.47676 11.441 5.93108C11.8241 6.48649 11.6203 7.33228 11.0257 7.65095C10.4097 8.02787 9.51009 7.70855 9.28257 7.02045C9.02423 6.40456 9.40057 5.63379 10.0357 5.44076ZM7.04589 5.50174C7.61065 5.23534 8.37069 5.45854 8.64349 6.03649C8.96454 6.59881 8.71629 7.38182 8.14237 7.67212C7.56774 7.9985 6.75702 7.75132 6.47918 7.14731C6.16706 6.56353 6.44397 5.77059 7.04589 5.50174ZM4.0522 6.52523C4.0954 6.16134 4.43841 5.9246 4.78473 5.90005C5.15791 5.94505 5.45599 6.23485 5.49652 6.61285C5.47204 6.98668 5.18311 7.35215 4.78696 7.34985C4.35107 7.38736 3.96897 6.95385 4.0522 6.52552V6.52523ZM12.8945 5.97947C13.342 5.71897 13.9634 6.09819 13.9435 6.61228C13.9742 7.15696 13.2865 7.54108 12.8409 7.22133C12.378 6.95529 12.4141 6.20612 12.8945 5.97954V5.97947ZM5.82916 7.89892C6.35253 7.75492 6.95092 8.00159 7.2076 8.48263C7.4884 8.96683 7.37385 9.63946 6.93717 9.99463C6.37708 10.5156 5.34417 10.3064 5.04609 9.59546C4.70359 8.94379 5.1196 8.07043 5.82916 7.89885V7.89892ZM11.4999 7.89619C12.0087 7.75067 12.6064 7.94659 12.8799 8.41027C13.2416 8.94041 13.0689 9.73104 12.5306 10.0728C11.9666 10.4695 11.0931 10.2612 10.7828 9.64075C10.4066 8.99894 10.7851 8.09195 11.4999 7.89619ZM2.46302 8.50099C2.91511 8.32999 3.41623 8.82888 3.23306 9.27708C3.12124 9.68532 2.54582 9.83652 2.24853 9.53527C1.9007 9.2526 2.02951 8.6236 2.46309 8.50099H2.46302ZM14.7168 9.15144C14.7037 8.77704 14.9778 8.44512 15.3619 8.42424C15.6715 8.47327 15.9725 8.72304 15.948 9.06007C15.9764 9.50525 15.44 9.80779 15.0607 9.59863C14.8829 9.50827 14.7918 9.32597 14.7168 9.15122V9.15144ZM0.24031 8.72052C0.512254 8.60179 0.84871 8.83752 0.786646 9.13956C0.772246 9.48156 0.267166 9.61303 0.0816944 9.32726C-0.0822494 9.12919 0.0158145 8.82319 0.24031 8.72052ZM17.3892 8.71332C17.5807 8.57695 17.888 8.67494 17.9638 8.89872C18.0925 9.14309 17.8565 9.47789 17.5815 9.43656C17.1954 9.47177 17.0703 8.88331 17.3892 8.71332ZM7.30653 10.3549C8.02221 10.1688 8.79153 10.7653 8.79606 11.5025C8.84279 12.2472 8.08506 12.9075 7.35246 12.7355C6.78618 12.6444 6.34187 12.0989 6.36023 11.5267C6.35872 10.9795 6.77171 10.4707 7.3066 10.3549H7.30653ZM10.1409 10.3534C10.8673 10.1504 11.6595 10.7578 11.648 11.5118C11.6864 12.2427 10.9522 12.8808 10.235 12.7358C9.55998 12.6486 9.06196 11.907 9.25038 11.2519C9.34549 10.8154 9.71017 10.4605 10.1409 10.3534ZM4.67608 10.807C5.17871 10.7213 5.64995 11.2822 5.44612 11.7593C5.29744 12.2679 4.55728 12.4059 4.23004 11.9904C3.84621 11.5915 4.13277 10.8621 4.67608 10.807ZM12.988 10.8301C13.4362 10.6424 13.9863 11.0301 13.9518 11.5166C13.9698 12.0521 13.2906 12.4213 12.8523 12.1088C12.3555 11.828 12.4462 11.0023 12.988 10.8301ZM15.3113 13.1604C15.1358 12.8332 15.4545 12.3997 15.8178 12.4602C15.9986 12.4572 16.1251 12.5996 16.2408 12.7194C16.2645 12.9133 16.3044 13.1442 16.1435 13.294C15.925 13.5705 15.43 13.4916 15.3113 13.1607V13.1604ZM1.99437 12.5514C2.33385 12.3254 2.82237 12.6624 2.74605 13.0593C2.70544 13.4103 2.26365 13.6109 1.97205 13.4121C1.6595 13.2313 1.67102 12.7165 1.99437 12.5517V12.5514ZM8.70117 13.2865C9.14562 13.0904 9.71176 13.4773 9.66964 13.9668C9.70261 14.5077 9.00227 14.8823 8.56804 14.5572C8.08564 14.2783 8.16585 13.4578 8.70145 13.2863L8.70117 13.2865ZM5.59437 14.0108C5.97287 13.8117 6.4809 14.1556 6.44642 14.5796C6.45794 14.9274 6.11846 15.2239 5.77516 15.1725C5.49083 15.1664 5.30543 14.9115 5.21428 14.6692C5.21896 14.405 5.32768 14.1108 5.59437 14.0112V14.0108ZM11.8867 14.0173C12.2759 13.7767 12.8291 14.1223 12.7923 14.5753C12.8024 15.0488 12.1771 15.3521 11.8147 15.0411C11.4637 14.7973 11.5066 14.2112 11.8867 14.0173ZM12.9811 16.7224C12.8083 16.4604 13.0117 16.1448 13.2929 16.0851C13.519 16.1311 13.758 16.3011 13.7105 16.5631C13.6775 16.9178 13.1588 17.0267 12.9811 16.7224ZM4.29506 16.4949C4.36403 16.2872 4.53107 16.0809 4.77551 16.1349C5.13184 16.1602 5.23761 16.6972 4.92571 16.8627C4.64527 17.0518 4.3199 16.7929 4.29506 16.4949ZM8.48545 16.7331C8.55371 16.426 8.95129 16.2766 9.21337 16.4397C9.38617 16.5141 9.43708 16.7079 9.48157 16.8725C9.45781 16.9583 9.43657 17.0442 9.41569 17.1299C9.30841 17.2571 9.17089 17.3843 8.99197 17.3797C8.66013 17.4186 8.36082 17.0435 8.48545 16.7331Z" fill="#3CC8C8"/>
</svg>
