<svg width="18" height="18" viewBox="0 0 18 18" fill="none" xmlns="http://www.w3.org/2000/svg">
<path d="M9 18C13.9706 18 18 13.9706 18 9C18 4.02944 13.9706 0 9 0C4.02944 0 0 4.02944 0 9C0 13.9706 4.02944 18 9 18Z" fill="black"/>
<path fillRule="evenodd" clipRule="evenodd" d="M9.78022 12.6146V14.7186C9.78022 15.0061 9.5472 15.2391 9.25964 15.2391C9.16153 15.2391 9.0668 15.2135 8.98308 15.1626L4.61151 12.4872C4.30207 12.2979 4.11279 11.9594 4.11279 11.5954V9.56788C4.11279 9.32768 4.30936 9.1311 4.54948 9.1311C4.62591 9.1311 4.70251 9.15297 4.76793 9.19305L9.34708 11.8611C9.61653 12.0176 9.78022 12.3052 9.78022 12.6146Z" fill="#01D494"/>
<path fillRule="evenodd" clipRule="evenodd" d="M11.8698 9.38955V13.6556C11.8698 13.7831 11.8043 13.8996 11.6952 13.9578L10.6905 14.522C10.6797 14.5293 10.6651 14.5366 10.6505 14.5402V12.1706C10.6505 11.8648 10.4903 11.5808 10.2246 11.4207L6.20605 9.01462V6.34291C6.20605 6.10262 6.40262 5.90613 6.64274 5.90613C6.71917 5.90613 6.79577 5.92789 6.86119 5.96434L11.4368 8.63613C11.7061 8.79263 11.8698 9.08021 11.8698 9.38955Z" fill="#01D494"/>
<path fillRule="evenodd" clipRule="evenodd" d="M13.8754 12.4726C13.8754 12.6001 13.8063 12.7165 13.6934 12.7784L12.7434 13.2916V8.95275C12.7434 8.64331 12.5833 8.36311 12.3211 8.20289L8.20801 5.73859V3.20152C8.20801 3.12509 8.22968 3.04865 8.26611 2.98317C8.39 2.77566 8.65572 2.70287 8.86313 2.82304L13.4423 5.4838C13.7117 5.6403 13.8754 5.92789 13.8754 6.23731V12.4726Z" fill="#01D494"/>
</svg>
