<svg width="18" height="18" viewBox="0 0 18 18" fill="none" xmlns="http://www.w3.org/2000/svg">
<path d="M9 18C13.9706 18 18 13.9706 18 9C18 4.02944 13.9706 0 9 0C4.02944 0 0 4.02944 0 9C0 13.9706 4.02944 18 9 18Z" fill="#FB2EA3"/>
<path d="M12.7305 7.88625C12.6028 8.74969 12.1241 9.16763 11.489 9.31388C12.3609 9.76781 12.8053 10.4648 12.3823 11.6719C11.8575 13.1715 10.611 13.2975 8.95329 12.9842L8.54998 14.5969L7.57798 14.3544L7.9751 12.7637C7.71601 12.6994 7.45762 12.6322 7.19998 12.5623L6.80173 14.1609L5.83029 13.9191L6.23304 12.303C6.00579 12.2451 5.77516 12.1832 5.53948 12.1241L4.27441 11.8091L4.75704 10.6954C4.75704 10.6954 5.47366 10.8866 5.46354 10.872C5.73916 10.9401 5.86123 10.7606 5.9096 10.6414L6.54523 8.09213L6.64816 8.11744C6.61516 8.10453 6.58133 8.09382 6.54691 8.08538L7.00029 6.26569C7.0121 6.05869 6.94123 5.79881 6.54748 5.69981C6.56266 5.68969 5.84098 5.52431 5.84098 5.52431L6.09973 4.48594L7.44073 4.82062L7.4396 4.82625C7.64098 4.87575 7.8491 4.92356 8.0606 4.97194L8.45941 3.375L9.43141 3.61687L9.04104 5.18288C9.30148 5.2425 9.56417 5.30213 9.81954 5.36625L10.2077 3.81094L11.1797 4.05281L10.7814 5.65031C12.0094 6.07331 12.9071 6.70725 12.7305 7.88625ZM10.5086 11.0014C10.8236 9.7425 8.70973 9.41681 8.05048 9.252L7.51666 11.3923C8.17591 11.556 10.2088 12.2091 10.5092 11.0014H10.5086ZM10.8095 7.86881C11.0953 6.723 9.32791 6.46819 8.77891 6.33094L8.29516 8.27213C8.8436 8.40938 10.5356 8.96738 10.8095 7.86881ZM13.6389 12.1601C13.5918 12.1538 13.5439 12.1569 13.4979 12.1691C13.452 12.1814 13.4089 12.2026 13.3712 12.2316C13.2981 12.2943 13.2485 12.3799 13.2305 12.4746C13.219 12.5272 13.2152 12.5812 13.2193 12.6349C13.2241 12.6961 13.2438 12.7552 13.2767 12.807C13.3104 12.8633 13.3644 12.9161 13.4375 12.9656C13.5107 13.0146 13.6119 13.0539 13.7413 13.0838C13.811 13.1006 13.883 13.1085 13.9567 13.1079C14.031 13.1079 14.0996 13.0961 14.1626 13.0725C14.2292 13.049 14.2886 13.0086 14.335 12.9552C14.3813 12.9019 14.413 12.8374 14.427 12.7682C14.4403 12.7188 14.4436 12.6673 14.4368 12.6166C14.4301 12.5659 14.4134 12.5171 14.3876 12.4729C14.3359 12.3863 14.2509 12.3199 14.1322 12.2738L14.2189 11.8991C14.4326 11.9852 14.5822 12.1084 14.6689 12.2676C14.7555 12.4273 14.7735 12.6169 14.7229 12.8363C14.6972 12.9579 14.6465 13.0729 14.5738 13.1738C14.5085 13.2627 14.4248 13.3366 14.3284 13.3904C14.2321 13.4442 14.1252 13.4766 14.0152 13.4854C13.8942 13.4963 13.7722 13.4874 13.6541 13.4589C13.5326 13.4318 13.4159 13.3863 13.3082 13.3239C13.2088 13.267 13.1221 13.1905 13.0534 13.0989C12.9865 13.008 12.9407 12.9033 12.9195 12.7924C12.8968 12.6651 12.9016 12.5345 12.9335 12.4093C12.9551 12.3142 12.9897 12.2226 13.0365 12.1371C13.082 12.0538 13.1377 11.9835 13.2047 11.9261C13.271 11.8688 13.3475 11.8271 13.4342 11.8013C13.5214 11.7748 13.6181 11.7698 13.7255 11.7849L13.6389 12.1601ZM15.1532 10.9716C15.1267 11.0966 15.0752 11.215 15.0019 11.3198C14.9327 11.4154 14.85 11.4908 14.7544 11.5464C14.6554 11.6026 14.5458 11.6375 14.4326 11.6488C14.307 11.6614 14.1801 11.6526 14.0574 11.6229C13.9352 11.5959 13.8184 11.5484 13.712 11.4823C13.6153 11.4226 13.5322 11.3432 13.4679 11.2494C13.4048 11.1552 13.3626 11.0486 13.3442 10.9367C13.3243 10.8106 13.3301 10.6819 13.361 10.5581C13.3876 10.4331 13.439 10.3146 13.5124 10.2099C13.5821 10.1143 13.6642 10.0384 13.7604 9.98325C13.8593 9.92706 13.9689 9.89219 14.0822 9.88088C14.2003 9.86794 14.324 9.87638 14.4534 9.90619C14.5767 9.93317 14.6946 9.9807 14.8022 10.0468C14.9034 10.1109 14.9844 10.1886 15.0463 10.2803C15.1082 10.3719 15.1492 10.476 15.17 10.5924C15.19 10.7187 15.1842 10.8476 15.1532 10.9716ZM13.6772 9.39769L13.7587 9.04613L14.0872 9.12206L14.0889 9.11531C14.043 9.09169 14.0023 9.05919 13.9691 9.01969C13.8928 8.93093 13.8422 8.82296 13.8229 8.7075C13.8134 8.64918 13.8153 8.5896 13.8285 8.532C13.8387 8.48453 13.853 8.43804 13.8712 8.39306L14.2329 8.47631C14.2224 8.50214 14.2124 8.52821 14.2031 8.5545C14.1937 8.58044 14.1858 8.60693 14.1795 8.63381C14.1639 8.69554 14.1625 8.75997 14.1754 8.82231C14.1883 8.88465 14.215 8.94328 14.2537 8.99381C14.2975 9.05043 14.3518 9.09816 14.4135 9.13444C14.4804 9.1755 14.5609 9.207 14.6554 9.22894L15.4642 9.41569L15.3776 9.79031L13.6772 9.39769ZM14.9597 8.16581C15.0249 8.18156 15.0907 8.18663 15.1565 8.18269C15.219 8.17876 15.2802 8.16272 15.3365 8.13544C15.3924 8.10807 15.4415 8.06847 15.48 8.01956C15.5234 7.96229 15.5534 7.89596 15.5677 7.8255C15.5938 7.73303 15.5905 7.63473 15.5582 7.54425C15.5216 7.46096 15.4596 7.39143 15.381 7.34569L15.4625 6.99075C15.5846 7.04621 15.6888 7.13438 15.7638 7.24549C15.8387 7.35659 15.8815 7.48628 15.8872 7.62019C15.8929 7.71019 15.885 7.80131 15.8642 7.89356C15.8332 8.02744 15.7837 8.14106 15.7162 8.23388C15.6514 8.32499 15.567 8.40053 15.4693 8.45502C15.3717 8.5095 15.2631 8.54156 15.1515 8.54888C14.9051 8.56857 14.6587 8.51033 14.4472 8.38238C14.3505 8.3219 14.2662 8.24364 14.1986 8.15175C14.1328 8.06101 14.0866 7.95756 14.063 7.848C14.0377 7.73663 14.0405 7.61738 14.0692 7.48969C14.0961 7.36406 14.1534 7.24699 14.2363 7.14881C14.3139 7.05781 14.4105 6.98486 14.5192 6.93506C14.6304 6.88582 14.7503 6.85905 14.8719 6.85631C14.999 6.85181 15.1239 6.87206 15.2477 6.9165L14.9591 8.16638L14.9597 8.16581ZM14.8573 10.9035C14.8758 10.8314 14.8759 10.7558 14.8574 10.6838C14.8389 10.6117 14.8025 10.5454 14.7515 10.4912C14.7024 10.4375 14.6441 10.393 14.5794 10.3596C14.4452 10.2889 14.2951 10.2541 14.1435 10.2583C14.0707 10.2597 13.9989 10.2744 13.9314 10.3016C13.8622 10.3283 13.8007 10.3721 13.7529 10.4288C13.705 10.4855 13.6722 10.5534 13.6575 10.6262C13.6387 10.698 13.6384 10.7734 13.6565 10.8453C13.6746 10.9173 13.7105 10.9835 13.761 11.0379C13.8077 11.0908 13.865 11.1341 13.9331 11.1696C14.0674 11.2399 14.2175 11.2748 14.369 11.2708C14.4419 11.269 14.5139 11.2543 14.5817 11.2275C14.6512 11.2011 14.7129 11.1575 14.7611 11.1009C14.8092 11.0442 14.8423 10.9763 14.8573 10.9035ZM14.9147 7.23431C14.8551 7.225 14.7944 7.22443 14.7347 7.23263C14.6778 7.23899 14.6227 7.25653 14.5726 7.28423C14.5225 7.31194 14.4784 7.34926 14.4427 7.39406C14.4058 7.44392 14.3794 7.50069 14.3649 7.56099C14.3504 7.62129 14.3482 7.68389 14.3584 7.74506C14.3696 7.80413 14.3904 7.85756 14.4219 7.90538C14.4914 8.00598 14.5945 8.07841 14.7127 8.10956L14.9147 7.23431Z" fill="white"/>
</svg>
