<svg width="18" height="18" viewBox="0 0 18 18" fill="none" xmlns="http://www.w3.org/2000/svg">
<path d="M17.9837 8.99685C17.9837 13.9428 13.9744 17.9521 9.02847 17.9521C4.08267 17.9521 0.0732422 13.9428 0.0732422 8.99685C0.0732422 4.05097 4.08267 0.041626 9.02847 0.041626C13.9744 0.041626 17.9837 4.05097 17.9837 8.99685Z" fill="#1BA27A"/>
<path d="M13.2317 4.55737H4.75195V6.60454H7.96822V9.61349H10.0154V6.60454H13.2317V4.55737Z" fill="white"/>
<path d="M9.01105 9.93401C6.35046 9.93401 4.19341 9.51293 4.19341 8.99344C4.19341 8.47404 6.35037 8.05287 9.01105 8.05287C11.6717 8.05287 13.8286 8.47404 13.8286 8.99344C13.8286 9.51293 11.6717 9.93401 9.01105 9.93401ZM14.4205 9.15024C14.4205 8.48039 11.9986 7.93744 9.01105 7.93744C6.02359 7.93744 3.60156 8.48039 3.60156 9.15024C3.60156 9.74013 5.47956 10.2316 7.96813 10.3405V14.6599H10.0151V10.3422C12.5228 10.2367 14.4205 9.74317 14.4205 9.15024Z" fill="white"/>
</svg>
