<svg width="18" height="18" viewBox="0 0 18 18" fill="none" xmlns="http://www.w3.org/2000/svg">
<mask id="mask0_8223_51352" style="mask-type:alpha" maskUnits="userSpaceOnUse" x="0" y="0" width="18" height="18">
<path d="M0 6.10352e-05H18V18H0V6.10352e-05Z" fill="white"/>
</mask>
<g mask="url(#mask0_8223_51352)">
<path fillRule="evenodd" clipRule="evenodd" d="M9 6.10352e-05C13.9707 6.10352e-05 18 4.0294 18 9.00006C18 13.9703 13.9707 18.0001 9 18.0001C4.02934 18.0001 0 13.9703 0 9.00006C0 4.0294 4.02934 6.10352e-05 9 6.10352e-05Z" fill="#2775CA"/>
</g>
<path fillRule="evenodd" clipRule="evenodd" d="M7.31269 15.2574C7.31269 15.4692 7.14691 15.5894 6.94216 15.5255C4.22099 14.6574 2.24805 12.1058 2.24805 9.09511C2.24805 6.08451 4.22099 3.5328 6.94216 2.66471C7.14691 2.6012 7.31269 2.72106 7.31269 2.93277V3.45538C7.31269 3.59631 7.20347 3.7622 7.06918 3.80812C4.91624 4.59869 3.37397 6.66695 3.37397 9.09153C3.37397 11.5161 4.91624 13.5848 7.06918 14.3749C7.20347 14.4244 7.31269 14.5866 7.31269 14.7281V15.2574Z" fill="white"/>
<path fillRule="evenodd" clipRule="evenodd" d="M9.56124 13.3127C9.56124 13.4681 9.43422 13.5952 9.27897 13.5952H8.7177C8.56245 13.5952 8.43542 13.4681 8.43542 13.3127V12.4234C7.20713 12.2576 6.6073 11.5692 6.44489 10.6341C6.41656 10.475 6.54358 10.3304 6.70599 10.3304H7.34837C7.48245 10.3304 7.59546 10.4258 7.62368 10.5597C7.74375 11.1174 8.06489 11.5445 9.04947 11.5445C9.77653 11.5445 10.292 11.1386 10.292 10.5318C10.292 9.92448 9.98833 9.69519 8.92245 9.51856C7.34837 9.30686 6.60372 8.83027 6.60372 7.59502C6.60372 6.64214 7.32382 5.90107 8.439 5.74214V4.87037C8.439 4.71502 8.56613 4.58789 8.72127 4.58789H9.28255C9.4378 4.58789 9.56482 4.71502 9.56482 4.87037V5.76689C10.4719 5.9295 11.0472 6.44445 11.2343 7.29853C11.2695 7.46114 11.1425 7.61261 10.9767 7.61261H10.3836C10.2566 7.61261 10.1507 7.52782 10.112 7.40438C9.95315 6.86111 9.56482 6.62823 8.89064 6.62823C8.14599 6.62823 7.76124 6.98813 7.76124 7.49274C7.76124 8.02569 7.98021 8.29374 9.12382 8.45994C10.6695 8.67164 11.4673 9.11274 11.4673 10.4295C11.4673 11.4282 10.726 12.2365 9.56482 12.4234V13.3127H9.56124Z" fill="white"/>
<path fillRule="evenodd" clipRule="evenodd" d="M11.0575 15.5255C10.853 15.5894 10.687 15.4691 10.687 15.2574V14.7352C10.687 14.5799 10.7823 14.4353 10.9305 14.3821C13.0835 13.5915 14.6257 11.5233 14.6257 9.09868C14.6257 6.6741 13.0835 4.60584 10.9305 3.81527C10.7964 3.76577 10.687 3.60357 10.687 3.46212V2.93992C10.687 2.72821 10.853 2.60477 11.0575 2.67145C13.7787 3.54006 15.7517 6.09166 15.7517 9.10226C15.7483 12.1057 13.7787 14.6538 11.0575 15.5255Z" fill="white"/>
</svg>
