<svg width="21" height="21" viewBox="0 0 21 21" fill="none" xmlns="http://www.w3.org/2000/svg">
<path opacity="0.4" d="M10.9183 19.2787C15.5357 19.2787 19.2789 15.5355 19.2789 10.918C19.2789 6.30057 15.5357 2.55737 10.9183 2.55737C6.30081 2.55737 2.55762 6.30057 2.55762 10.918C2.55762 15.5355 6.30081 19.2787 10.9183 19.2787Z" fill="#FF783C"/>
<path d="M13.4265 14.2623C12.9583 14.2623 12.582 13.8861 12.582 13.4262C12.582 12.9664 12.9583 12.5901 13.4181 12.5901C13.8779 12.5901 14.2542 12.9664 14.2542 13.4262C14.2542 13.8861 13.8863 14.2623 13.4265 14.2623Z" fill="#FF783C"/>
<path d="M8.41816 9.24592C7.94997 9.24592 7.57373 8.86969 7.57373 8.40986C7.57373 7.95002 7.94996 7.57379 8.4098 7.57379C8.86963 7.57379 9.24586 7.95002 9.24586 8.40986C9.24586 8.86969 8.878 9.24592 8.41816 9.24592Z" fill="#FF783C"/>
<path d="M8.40965 14.0533C8.2508 14.0533 8.09192 13.9948 7.96651 13.8694C7.72405 13.6269 7.72405 13.2255 7.96651 12.9831L12.9829 7.9667C13.2254 7.72424 13.6267 7.72424 13.8692 7.9667C14.1116 8.20915 14.1116 8.61051 13.8692 8.85297L8.85279 13.8694C8.72738 13.9948 8.5685 14.0533 8.40965 14.0533Z" fill="#FF783C"/>
</svg>
