<svg width="21" height="21" viewBox="0 0 21 21" fill="none" xmlns="http://www.w3.org/2000/svg">
<path opacity="0.4" d="M15.0986 7.36475C14.9397 7.36475 14.7809 7.30622 14.6555 7.18082C14.413 6.93836 14.413 6.53705 14.6555 6.29459L16.3694 4.58065C14.8979 3.32655 13.0001 2.55737 10.9183 2.55737C6.30319 2.55737 2.55762 6.30295 2.55762 10.918C2.55762 15.5331 6.30319 19.2787 10.9183 19.2787C15.5334 19.2787 19.2789 15.5331 19.2789 10.918C19.2789 8.83623 18.5097 6.93836 17.2556 5.46688L15.5417 7.18082C15.4163 7.30622 15.2575 7.36475 15.0986 7.36475Z" fill="#FF4E3E"/>
<path d="M12.381 10.7675L11.5449 10.4749V8.61885H11.6118C12.0382 8.61885 12.381 8.99508 12.381 9.45492C12.381 9.7977 12.6653 10.082 13.0081 10.082C13.3508 10.082 13.6351 9.7977 13.6351 9.45492C13.6351 8.30115 12.7321 7.36475 11.6118 7.36475H11.5449V7.15574C11.5449 6.81295 11.2607 6.52869 10.9179 6.52869C10.5751 6.52869 10.2908 6.81295 10.2908 7.15574V7.36475H10.04C9.0284 7.36475 8.20068 8.21754 8.20068 9.27098C8.20068 10.4916 8.91134 10.8846 9.45478 11.0769L10.2908 11.3695V13.2256H10.224C9.79758 13.2256 9.45478 12.8493 9.45478 12.3895C9.45478 12.0467 9.17052 11.7625 8.82773 11.7625C8.48495 11.7625 8.20068 12.0467 8.20068 12.3895C8.20068 13.5433 9.10365 14.4797 10.224 14.4797H10.2908V14.6887C10.2908 15.0315 10.5751 15.3157 10.9179 15.3157C11.2607 15.3157 11.5449 15.0315 11.5449 14.6887V14.4797H11.7958C12.8074 14.4797 13.6351 13.6269 13.6351 12.5734C13.6351 11.3444 12.9245 10.9515 12.381 10.7675ZM9.86445 9.88131C9.58018 9.78098 9.45478 9.72245 9.45478 9.26262C9.45478 8.90311 9.72233 8.61049 10.04 8.61049H10.2908V10.0234L9.86445 9.88131ZM11.7958 13.2172H11.5449V11.8043L11.9713 11.9548C12.2556 12.0551 12.381 12.1136 12.381 12.5734C12.381 12.9246 12.1135 13.2172 11.7958 13.2172Z" fill="#FF4E3E"/>
<path d="M19.8554 2.31495C19.7885 2.16446 19.6715 2.03905 19.5126 1.97217C19.4374 1.93872 19.3537 1.922 19.2701 1.922H15.9259C15.5831 1.922 15.2988 2.20626 15.2988 2.54905C15.2988 2.89183 15.5831 3.1761 15.9259 3.1761H17.7569L16.3606 4.57233C16.6784 4.84823 16.971 5.14085 17.2469 5.45856L18.6431 4.06233V5.90167C18.6431 6.24446 18.9274 6.52872 19.2701 6.52872C19.6129 6.52872 19.8972 6.24446 19.8972 5.90167V2.55741C19.9056 2.4738 19.8888 2.39856 19.8554 2.31495Z" fill="#FF4E3E"/>
</svg>
