<svg width="21" height="21" viewBox="0 0 21 21" fill="none" xmlns="http://www.w3.org/2000/svg">
<path opacity="0.4" d="M16.6118 6.11069H17.7489C17.59 5.88495 17.4228 5.67594 17.2472 5.46692L16.6118 6.11069Z" fill="#17BD8D"/>
<path opacity="0.4" d="M16.3693 4.58062C16.1603 4.40504 15.9513 4.23783 15.7256 4.07898V5.21603L16.3693 4.58062Z" fill="#17BD8D"/>
<path opacity="0.4" d="M15.0986 7.36475C15.015 7.36475 14.9397 7.34803 14.8561 7.31459C14.7056 7.2477 14.5802 7.13065 14.5133 6.9718C14.4799 6.89655 14.4632 6.81295 14.4632 6.72934V3.38508C14.4632 3.37672 14.4716 3.36835 14.4716 3.35163C13.393 2.84999 12.1891 2.55737 10.9183 2.55737C6.30319 2.55737 2.55762 6.30295 2.55762 10.918C2.55762 15.5331 6.30319 19.2787 10.9183 19.2787C15.5334 19.2787 19.2789 15.5331 19.2789 10.918C19.2789 9.64721 18.9863 8.44327 18.4763 7.35639C18.468 7.35639 18.4596 7.36475 18.4429 7.36475H15.0986Z" fill="#17BD8D"/>
<path d="M17.2554 5.46684L19.7218 3.00044C19.9642 2.75799 19.9642 2.35668 19.7218 2.11422C19.4793 1.87176 19.078 1.87176 18.8355 2.11422L16.3691 4.58061C16.6868 4.85651 16.9795 5.1575 17.2554 5.46684Z" fill="#17BD8D"/>
<path d="M15.7252 3.39341C15.7252 3.05062 15.441 2.76636 15.0982 2.76636C14.7637 2.76636 14.4962 3.0339 14.4795 3.35996C14.9142 3.56898 15.3323 3.80308 15.7252 4.07898V3.39341Z" fill="#17BD8D"/>
<path d="M19.0695 6.73777C19.0695 6.39498 18.7852 6.11072 18.4425 6.11072H17.7485C18.0244 6.50367 18.2669 6.9217 18.4675 7.35645C18.802 7.33973 19.0695 7.07219 19.0695 6.73777Z" fill="#17BD8D"/>
<path d="M12.381 10.7675L11.5449 10.4749V8.61885H11.6118C12.0382 8.61885 12.381 8.99508 12.381 9.45492C12.381 9.7977 12.6653 10.082 13.0081 10.082C13.3508 10.082 13.6351 9.7977 13.6351 9.45492C13.6351 8.30115 12.7321 7.36475 11.6118 7.36475H11.5449V7.15574C11.5449 6.81295 11.2607 6.52869 10.9179 6.52869C10.5751 6.52869 10.2908 6.81295 10.2908 7.15574V7.36475H10.04C9.0284 7.36475 8.20068 8.21754 8.20068 9.27098C8.20068 10.4916 8.91134 10.8846 9.45478 11.0769L10.2908 11.3695V13.2256H10.224C9.79758 13.2256 9.45478 12.8493 9.45478 12.3895C9.45478 12.0467 9.17052 11.7625 8.82773 11.7625C8.48495 11.7625 8.20068 12.0467 8.20068 12.3895C8.20068 13.5433 9.10365 14.4797 10.224 14.4797H10.2908V14.6887C10.2908 15.0315 10.5751 15.3157 10.9179 15.3157C11.2607 15.3157 11.5449 15.0315 11.5449 14.6887V14.4797H11.7958C12.8074 14.4797 13.6351 13.6269 13.6351 12.5734C13.6351 11.3444 12.9245 10.9515 12.381 10.7675ZM9.86445 9.88131C9.58018 9.78098 9.45478 9.72245 9.45478 9.26262C9.45478 8.90311 9.72233 8.61049 10.04 8.61049H10.2908V10.0234L9.86445 9.88131ZM11.7958 13.2172H11.5449V11.8043L11.9713 11.9548C12.2556 12.0551 12.381 12.1136 12.381 12.5734C12.381 12.9246 12.1135 13.2172 11.7958 13.2172Z" fill="#17BD8D"/>
</svg>
