<svg width="57" height="57" viewBox="0 0 57 57" fill="none" xmlns="http://www.w3.org/2000/svg">
<circle cx="28.5" cy="28.5" r="28.5" fill="#FFA114" fill-opacity="0.1"/>
<path d="M23 23C21.8954 23 21 23.8954 21 25V26H37V25C37 23.8954 36.1046 23 35 23H23Z" fill="#FFA114"/>
<path fill-rule="evenodd" clip-rule="evenodd" d="M37 28H21V33C21 34.1046 21.8954 35 23 35H35C36.1046 35 37 34.1046 37 33V28ZM23 32C23 31.4477 23.4477 31 24 31H25C25.5523 31 26 31.4477 26 32C26 32.5523 25.5523 33 25 33H24C23.4477 33 23 32.5523 23 32ZM28 31C27.4477 31 27 31.4477 27 32C27 32.5523 27.4477 33 28 33H29C29.5523 33 30 32.5523 30 32C30 31.4477 29.5523 31 29 31H28Z" fill="#FFA114"/>
</svg>
