<svg width="57" height="57" viewBox="0 0 57 57" fill="none" xmlns="http://www.w3.org/2000/svg">
<circle cx="28.5" cy="28.5" r="28.5" fill="#219FFF" fill-opacity="0.1"/>
<path fill-rule="evenodd" clip-rule="evenodd" d="M25 21C24.4477 21 24 21.4477 24 22V23H23C21.8954 23 21 23.8954 21 25V35C21 36.1046 21.8954 37 23 37H35C36.1046 37 37 36.1046 37 35V25C37 23.8954 36.1046 23 35 23H34V22C34 21.4477 33.5523 21 33 21C32.4477 21 32 21.4477 32 22V23H26V22C26 21.4477 25.5523 21 25 21ZM25 26C24.4477 26 24 26.4477 24 27C24 27.5523 24.4477 28 25 28H33C33.5523 28 34 27.5523 34 27C34 26.4477 33.5523 26 33 26H25Z" fill="#219FFF"/>
</svg>
