<svg width="57" height="57" viewBox="0 0 57 57" fill="none" xmlns="http://www.w3.org/2000/svg">
<circle cx="28.5" cy="28.5" r="28.5" fill="#A056FF" fill-opacity="0.1"/>
<path fill-rule="evenodd" clip-rule="evenodd" d="M29 37C33.4183 37 37 33.4183 37 29C37 24.5817 33.4183 21 29 21C24.5817 21 21 24.5817 21 29C21 33.4183 24.5817 37 29 37ZM30 25C30 24.4477 29.5523 24 29 24C28.4477 24 28 24.4477 28 25V29C28 29.2652 28.1054 29.5196 28.2929 29.7071L31.1213 32.5355C31.5118 32.9261 32.145 32.9261 32.5355 32.5355C32.9261 32.145 32.9261 31.5118 32.5355 31.1213L30 28.5858V25Z" fill="#A056FF"/>
</svg>
