<svg width="57" height="57" viewBox="0 0 57 57" fill="none" xmlns="http://www.w3.org/2000/svg">
<circle cx="28.5" cy="28.5" r="28.5" fill="#17BD8D" fill-opacity="0.1"/>
<path d="M27.4334 26.4178C27.5882 26.3146 27.7794 26.2224 28 26.151L28 27.849C27.7794 27.7776 27.5882 27.6854 27.4334 27.5822C27.0693 27.3394 27 27.1139 27 27C27 26.8861 27.0693 26.6606 27.4334 26.4178Z" fill="#17BD8D"/>
<path d="M30 31.849L30 30.151C30.2206 30.2224 30.4118 30.3146 30.5666 30.4178C30.9308 30.6606 31 30.8861 31 31C31 31.1139 30.9308 31.3394 30.5666 31.5822C30.4118 31.6854 30.2206 31.7776 30 31.849Z" fill="#17BD8D"/>
<path fill-rule="evenodd" clip-rule="evenodd" d="M29 37C33.4183 37 37 33.4183 37 29C37 24.5817 33.4183 21 29 21C24.5817 21 21 24.5817 21 29C21 33.4183 24.5817 37 29 37ZM30 24C30 23.4477 29.5523 23 29 23C28.4477 23 28 23.4477 28 24V24.092C27.3784 24.2087 26.8035 24.4341 26.324 24.7537C25.6023 25.2349 25 26.0093 25 27C25 27.9907 25.6023 28.7651 26.324 29.2463C26.8035 29.5659 27.3784 29.7913 28 29.908L28 31.8492C27.609 31.7223 27.3192 31.5319 27.1567 31.3446C26.7947 30.9275 26.1631 30.8827 25.746 31.2447C25.3288 31.6067 25.2841 32.2382 25.6461 32.6554C26.2086 33.3036 27.0596 33.7308 28 33.9076L28 34C28 34.5523 28.4477 35 29 35C29.5523 35 30 34.5523 30 34L30 33.908C30.6216 33.7913 31.1965 33.5659 31.676 33.2463C32.3977 32.7651 33 31.9907 33 31C33 30.0093 32.3977 29.2348 31.676 28.7537C31.1965 28.4341 30.6216 28.2087 30 28.092L30 26.1508C30.391 26.2777 30.6808 26.4681 30.8434 26.6554C31.2053 27.0725 31.8369 27.1173 32.254 26.7553C32.6712 26.3933 32.7159 25.7618 32.354 25.3446C31.7915 24.6964 30.9405 24.2692 30 24.0924V24Z" fill="#17BD8D"/>
</svg>
